<svg xmlns="http://www.w3.org/2000/svg" xmlns:xlink="http://www.w3.org/1999/xlink" viewBox="0,0,256,256" width="512px" height="512px" fill-rule="nonzero"><g fill="#10002b" fill-rule="nonzero" stroke="none" stroke-width="1" stroke-linecap="butt" stroke-linejoin="miter" stroke-miterlimit="10" stroke-dasharray="" stroke-dashoffset="0" font-family="none" font-weight="none" font-size="none" text-anchor="none" style="mix-blend-mode: normal"><g transform="scale(8,8)"><path d="M9,4l1.72656,1.9082c0.015,0.017 1.4547,1.68091 1.2207,3.62891c-0.149,1.244 -0.96034,2.3933 -2.40234,3.4043c-4.239,2.872 -5.52458,6.73537 -3.76758,10.48438c1.322,2.822 4.21994,4.57422 7.33594,4.57422h1.81445l-1.13672,-1.61133c-0.908,-1.174 -0.89083,-2.51562 -0.67383,-3.51562c1.545,1.169 3.34951,1.0197 4.60352,0.2207c1.151,-0.734 1.96519,-2.05581 1.99219,-3.63281c0.258,0.408 0.47105,0.88316 0.62305,1.41016c0.442,1.531 0.38816,3.8662 -1.21484,5.4082l-1.66992,1.7207h1.57422c0.891,0 1.78503,-0.1665 2.58203,-0.5625c2.489,-1.235 4.16869,-3.49095 5.05469,-6.75195c0.721,-2.655 0.26037,-6.16162 -1.26562,-8.89062c-3.539,-6.351 -13.39745,-7.49697 -13.81445,-7.54297zM13.45313,6.61523c2.907,0.654 8.06122,2.3183 10.19922,6.1543c1.263,2.257 1.67422,5.09797 1.07422,7.41797c-0.497,1.941 -1.27848,3.39111 -2.39648,4.41211c0.395,-1.498 0.28573,-3.0412 -0.07227,-4.2832c-0.655,-2.268 -2.20769,-3.91292 -4.05469,-4.29492l-2.20312,-0.46094l1.14258,1.95117c1.061,1.784 0.48591,3.26853 -0.49609,3.89453c-0.783,0.499 -2.0627,0.54725 -3.0957,-0.96875l-0.95312,-1.40039l-0.76562,1.51172c-0.265,0.523 -1.29161,2.78225 -0.59961,5.15625c-1.46,-0.474 -2.93517,-1.53391 -3.70117,-3.25391c-1.621,-3.638 0.81144,-6.27928 3.14844,-7.86328c1.948,-1.365 3.04481,-2.99199 3.25781,-4.83398c0.138,-1.191 -0.12538,-2.27467 -0.48437,-3.13867z"></path></g></g></svg>